<svg id="svg" version="1.1" xmlns="http://www.w3.org/2000/svg" xmlns:xlink="http://www.w3.org/1999/xlink" width="400" height="400" viewBox="0, 0, 400,400"><g id="svgg"><path id="path0" d="M0.000 200.000 L 0.000 400.000 200.000 400.000 L 400.000 400.000 400.000 200.000 L 400.000 0.000 200.000 0.000 L 0.000 0.000 0.000 200.000 M64.386 177.974 C 64.637 178.443,64.800 182.379,64.800 187.974 C 64.800 195.814,64.888 197.200,65.386 197.200 C 65.858 197.200,65.995 196.360,66.086 192.900 L 66.200 188.600 68.142 188.476 C 71.177 188.283,71.600 188.893,71.600 193.462 C 71.600 195.687,71.762 197.200,72.000 197.200 C 72.227 197.200,72.400 196.027,72.400 194.480 C 72.400 191.248,72.741 190.800,75.200 190.800 C 77.802 190.800,78.000 191.145,78.000 195.680 C 78.000 200.855,79.093 201.554,79.283 196.500 C 79.430 192.598,80.212 192.212,82.775 194.775 L 84.400 196.400 84.400 202.133 C 84.400 205.287,84.281 207.986,84.135 208.132 C 83.872 208.395,82.912 210.925,81.758 214.400 C 81.429 215.390,81.009 216.560,80.825 217.000 C 80.642 217.440,80.273 218.610,80.007 219.600 C 79.140 222.821,79.820 222.600,70.776 222.600 L 62.639 222.600 61.965 221.200 C 57.936 212.835,56.882 210.766,55.919 209.328 C 55.304 208.408,54.800 207.549,54.800 207.417 C 54.800 207.286,53.810 205.700,52.600 203.893 C 49.755 199.643,49.643 197.200,52.294 197.200 C 53.332 197.200,57.992 200.713,57.997 201.500 C 58.001 202.221,59.070 202.116,59.357 201.367 C 59.491 201.019,59.600 195.544,59.600 189.201 C 59.600 176.511,59.426 177.285,62.286 177.232 C 63.564 177.208,64.072 177.387,64.386 177.974 " stroke="none" fill="#fcfcfc" fill-rule="evenodd"></path><path id="path1" d="M60.285 178.648 C 60.128 178.805,60.000 184.192,60.000 190.620 L 60.000 202.307 59.122 202.536 C 58.445 202.713,57.785 202.315,56.247 200.801 C 53.879 198.469,52.113 197.577,51.569 198.436 C 50.861 199.555,51.246 200.536,54.020 204.685 C 55.571 207.005,58.176 211.625,59.809 214.951 C 61.442 218.278,62.970 221.225,63.205 221.500 C 63.517 221.866,65.561 222.000,70.807 222.000 C 78.829 222.000,78.739 222.033,79.401 218.863 C 79.554 218.127,80.650 214.887,81.835 211.663 C 85.045 202.934,84.921 197.011,81.478 194.600 C 80.107 193.639,80.000 193.828,80.000 197.200 L 80.000 200.400 78.843 200.400 C 77.359 200.400,77.200 199.933,77.200 195.575 C 77.200 192.143,77.165 192.007,76.232 191.772 C 74.115 191.241,73.815 191.581,73.600 194.763 C 73.215 200.449,70.800 199.999,70.800 194.241 C 70.800 189.929,70.420 189.200,68.171 189.200 L 66.800 189.200 66.795 192.900 C 66.787 197.774,66.587 198.477,65.248 198.322 L 64.200 198.200 64.000 188.400 L 63.800 178.600 62.185 178.481 C 61.298 178.416,60.443 178.491,60.285 178.648 " stroke="none" fill="#fc1616" fill-rule="evenodd"></path><path id="path2" d="M60.100 177.465 C 59.825 177.576,59.605 177.967,59.612 178.333 C 59.623 178.935,59.664 178.932,60.032 178.300 C 60.511 177.478,63.168 177.328,63.920 178.080 C 64.267 178.427,64.400 181.215,64.400 188.108 L 64.400 197.656 65.300 197.528 C 66.161 197.405,66.205 197.215,66.314 193.100 L 66.427 188.800 68.242 188.800 C 70.916 188.800,71.200 189.277,71.200 193.771 C 71.200 197.333,71.256 197.600,72.000 197.600 C 72.720 197.600,72.801 197.331,72.806 194.900 C 72.814 191.399,73.016 191.122,75.439 191.276 L 77.400 191.400 77.600 195.600 C 77.784 199.467,77.863 199.800,78.600 199.800 C 79.316 199.800,79.412 199.494,79.518 196.881 C 79.679 192.896,81.864 192.692,83.735 196.487 C 84.127 197.282,84.385 197.524,84.391 197.100 C 84.405 196.004,81.311 193.128,80.275 193.275 C 79.473 193.390,79.390 193.658,79.283 196.500 C 79.093 201.554,78.000 200.855,78.000 195.680 C 78.000 191.145,77.802 190.800,75.200 190.800 C 72.741 190.800,72.400 191.248,72.400 194.480 C 72.400 196.027,72.227 197.200,72.000 197.200 C 71.762 197.200,71.600 195.687,71.600 193.462 C 71.600 188.893,71.177 188.283,68.142 188.476 L 66.200 188.600 66.086 192.900 C 65.995 196.360,65.858 197.200,65.386 197.200 C 64.888 197.200,64.800 195.814,64.800 187.974 C 64.800 176.977,64.266 175.784,60.100 177.465 M50.880 197.680 C 50.202 198.358,50.284 200.502,51.022 201.424 C 51.617 202.166,51.625 202.160,51.198 201.282 C 50.393 199.623,50.840 197.818,52.092 197.674 C 53.323 197.532,57.365 200.441,57.734 201.735 C 57.966 202.551,59.270 202.516,59.437 201.690 C 59.494 201.410,59.449 201.365,59.337 201.590 C 59.049 202.171,58.001 202.100,57.997 201.500 C 57.985 199.764,52.006 196.554,50.880 197.680 M53.037 204.500 C 53.849 205.765,54.588 206.800,54.679 206.800 C 54.947 206.800,53.500 204.482,52.490 203.294 C 51.979 202.692,52.225 203.235,53.037 204.500 M54.800 207.329 C 54.800 207.694,56.845 210.800,57.086 210.800 C 57.279 210.800,55.692 208.048,55.136 207.420 C 54.951 207.211,54.800 207.170,54.800 207.329 M83.086 209.484 C 82.967 209.878,82.473 211.280,81.987 212.600 C 80.822 215.768,80.341 217.433,80.725 216.973 C 80.897 216.768,81.266 215.880,81.547 215.000 C 81.828 214.120,82.428 212.449,82.881 211.286 C 83.334 210.123,83.614 209.081,83.503 208.970 C 83.392 208.859,83.204 209.090,83.086 209.484 M57.245 211.401 C 57.679 212.525,60.875 218.800,61.014 218.800 C 61.267 218.800,60.760 217.635,59.107 214.421 C 57.761 211.803,56.796 210.238,57.245 211.401 M79.647 219.516 C 79.362 220.552,79.060 221.625,78.977 221.900 C 78.707 222.790,62.956 222.600,62.432 221.700 C 62.208 221.315,62.019 221.203,62.012 221.451 C 61.980 222.650,63.169 222.816,71.008 222.709 C 77.557 222.619,78.966 222.497,79.218 222.000 C 79.738 220.976,80.539 218.006,80.347 217.814 C 80.247 217.714,79.932 218.480,79.647 219.516 " stroke="none" fill="#fcd4d4" fill-rule="evenodd"></path><path id="path3" d="M61.100 177.882 C 61.595 177.978,62.405 177.978,62.900 177.882 C 63.395 177.787,62.990 177.709,62.000 177.709 C 61.010 177.709,60.605 177.787,61.100 177.882 M64.173 188.000 C 64.173 193.390,64.230 195.595,64.299 192.900 C 64.368 190.205,64.368 185.795,64.299 183.100 C 64.230 180.405,64.173 182.610,64.173 188.000 M59.600 190.480 C 59.490 197.015,59.538 202.223,59.706 202.054 C 59.875 201.886,59.965 196.539,59.906 190.174 L 59.799 178.600 59.600 190.480 M72.877 194.671 C 72.814 197.029,72.675 197.574,72.100 197.724 C 71.444 197.896,71.445 197.910,72.113 197.954 C 73.083 198.017,73.266 197.351,73.098 194.358 L 72.954 191.800 72.877 194.671 M79.596 196.882 C 79.488 198.577,79.544 199.819,79.720 199.642 C 79.895 199.465,79.984 198.079,79.916 196.560 L 79.792 193.800 79.596 196.882 M50.958 198.166 C 50.838 198.478,50.805 199.243,50.884 199.866 C 51.002 200.791,51.064 200.687,51.225 199.300 C 51.427 197.551,51.338 197.175,50.958 198.166 M84.151 202.000 C 84.151 204.530,84.216 205.565,84.296 204.300 C 84.375 203.035,84.375 200.965,84.296 199.700 C 84.216 198.435,84.151 199.470,84.151 202.000 " stroke="none" fill="#fc9c9c" fill-rule="evenodd"></path><path id="path4" d="M60.000 178.300 C 60.000 178.465,60.900 178.600,62.000 178.600 C 63.100 178.600,64.000 178.465,64.000 178.300 C 64.000 178.135,63.100 178.000,62.000 178.000 C 60.900 178.000,60.000 178.135,60.000 178.300 M66.572 189.330 C 66.460 189.622,66.428 191.557,66.501 193.630 L 66.634 197.400 66.717 193.300 L 66.800 189.200 68.171 189.200 C 70.420 189.200,70.800 189.929,70.800 194.241 C 70.800 199.999,73.215 200.449,73.600 194.763 C 73.815 191.581,74.115 191.241,76.232 191.772 C 77.166 192.007,77.203 192.154,77.283 195.908 L 77.366 199.800 77.499 196.060 C 77.656 191.625,77.389 191.108,75.035 191.280 L 73.400 191.400 73.200 194.600 C 73.021 197.467,72.917 197.800,72.200 197.800 C 71.468 197.800,71.383 197.467,71.200 193.866 C 71.033 190.575,70.873 189.840,70.224 189.366 C 69.243 188.651,66.841 188.627,66.572 189.330 M80.891 194.224 C 81.491 194.550,82.436 195.484,82.991 196.301 C 83.546 197.118,84.000 197.572,84.000 197.310 C 84.000 196.618,81.024 193.597,80.362 193.616 C 80.053 193.625,80.291 193.898,80.891 194.224 M51.467 197.867 C 51.320 198.013,51.203 198.328,51.206 198.567 C 51.209 198.805,51.373 198.746,51.569 198.436 C 52.086 197.620,53.775 198.413,55.963 200.500 C 56.933 201.424,57.653 201.961,57.563 201.692 C 57.044 200.139,52.221 197.113,51.467 197.867 M64.236 198.058 C 64.496 198.479,66.400 198.516,66.399 198.100 C 66.399 197.935,65.864 197.781,65.211 197.758 C 64.559 197.735,64.120 197.870,64.236 198.058 M78.600 200.000 L 77.400 200.305 78.700 200.353 C 79.415 200.379,80.000 200.220,80.000 200.000 C 80.000 199.780,79.955 199.621,79.900 199.647 C 79.845 199.673,79.260 199.832,78.600 200.000 M51.211 201.046 C 51.217 201.241,51.712 201.947,52.311 202.616 C 53.517 203.962,53.411 203.619,52.072 201.846 C 51.592 201.211,51.205 200.851,51.211 201.046 M54.386 205.800 C 54.856 206.680,55.606 207.850,56.054 208.400 C 56.830 209.353,56.828 209.325,56.014 207.800 C 55.544 206.920,54.794 205.750,54.346 205.200 C 53.570 204.247,53.572 204.275,54.386 205.800 M56.809 209.900 C 56.814 210.065,57.185 210.650,57.633 211.200 L 58.448 212.200 57.814 210.900 C 57.211 209.665,56.789 209.245,56.809 209.900 M79.646 217.667 C 79.621 218.034,79.496 218.664,79.370 219.067 C 79.152 219.762,79.163 219.763,79.597 219.087 C 79.848 218.696,79.973 218.066,79.873 217.687 C 79.711 217.068,79.688 217.066,79.646 217.667 M78.495 221.196 C 77.810 222.293,64.105 222.448,63.029 221.371 C 62.683 221.026,62.400 220.900,62.400 221.091 C 62.400 222.220,63.560 222.400,70.831 222.400 C 78.402 222.400,79.591 222.172,79.137 220.810 C 79.060 220.580,78.771 220.754,78.495 221.196 " stroke="none" fill="#fc8484" fill-rule="evenodd"></path></g></svg>