<?xml version="1.0" standalone="no"?>
<!DOCTYPE svg PUBLIC "-//W3C//DTD SVG 20010904//EN"
 "http://www.w3.org/TR/2001/REC-SVG-20010904/DTD/svg10.dtd">
<svg version="1.0" xmlns="http://www.w3.org/2000/svg"
 width="495.000000pt" height="84.000000pt" viewBox="0 0 495.000000 84.000000"
 preserveAspectRatio="xMidYMid meet">

<g transform="translate(0.000000,84.000000) scale(0.100000,-0.100000)"
fill="#000000" stroke="none">
<path d="M423 812 c-5 -4 -23 -28 -41 -53 -17 -26 -39 -49 -47 -53 -24 -9 -85
-7 -123 3 -62 18 -74 2 -59 -81 13 -75 3 -98 -68 -143 -35 -23 -55 -43 -55
-54 0 -11 21 -34 50 -55 65 -47 75 -69 61 -135 -23 -106 -15 -117 73 -99 71
15 93 5 146 -66 24 -33 48 -56 59 -56 12 0 31 19 50 48 42 66 64 75 151 60 89
-15 98 -9 83 63 -16 80 -6 108 57 152 86 60 86 59 -16 142 -36 29 -36 30 -31
90 3 33 8 67 11 75 4 9 0 24 -7 34 -13 18 -19 18 -71 8 -78 -16 -115 0 -156
66 -31 51 -49 65 -67 54z m108 -193 c83 -42 138 -146 123 -233 -19 -119 -109
-196 -229 -196 -91 0 -160 42 -201 122 -28 54 -32 139 -11 191 53 125 198 178
318 116z"/>
<path d="M3647 774 c-4 -4 -7 -160 -7 -346 l0 -338 60 0 60 0 -2 343 -3 342
-50 3 c-28 2 -54 0 -58 -4z"/>
<path d="M3900 435 l0 -345 55 0 55 0 0 345 0 345 -55 0 -55 0 0 -345z"/>
<path d="M870 425 l0 -335 195 0 195 0 0 50 0 50 -130 0 -130 0 0 285 0 285
-65 0 -65 0 0 -335z"/>
<path d="M1458 560 c-41 -12 -108 -52 -108 -65 0 -11 36 -55 46 -55 3 0 22 9
44 20 51 26 121 27 144 1 10 -11 20 -37 23 -58 l5 -38 -79 -11 c-92 -12 -164
-43 -189 -82 -21 -33 -21 -102 1 -135 43 -66 181 -66 257 0 14 13 17 12 23 -9
10 -30 23 -38 63 -38 l34 0 -4 178 c-4 204 -14 240 -84 279 -41 24 -121 30
-176 13z m152 -309 c0 -31 -6 -44 -26 -60 -57 -45 -145 -35 -152 18 -7 46 48
78 136 80 l42 1 0 -39z"/>
<path d="M1985 529 c-45 -42 -49 -41 -57 6 -3 16 -12 21 -51 23 l-47 3 0 -235
0 -236 55 0 55 0 0 148 0 148 29 34 c25 30 35 35 87 40 l59 5 9 43 c11 52 2
62 -57 62 -30 0 -46 -8 -82 -41z"/>
<path d="M2308 560 c-41 -12 -108 -52 -108 -65 0 -11 36 -55 46 -55 3 0 22 9
44 20 51 26 121 27 144 1 10 -11 20 -37 23 -58 l5 -38 -79 -11 c-92 -12 -164
-43 -189 -82 -21 -33 -21 -102 1 -135 43 -66 181 -66 257 0 14 13 17 12 23 -9
10 -30 23 -38 63 -38 l34 0 -4 178 c-4 204 -14 240 -84 279 -41 24 -121 30
-176 13z m152 -309 c0 -31 -6 -44 -26 -60 -57 -45 -145 -35 -152 18 -7 46 48
78 136 80 l42 1 0 -39z"/>
<path d="M3231 544 c-84 -42 -128 -129 -118 -236 11 -118 81 -201 183 -216 91
-14 199 15 228 60 8 14 6 22 -12 40 -20 21 -25 21 -54 9 -79 -32 -107 -36
-150 -21 -43 15 -69 48 -82 103 l-6 27 144 0 c79 0 151 3 160 6 12 4 16 19 16
53 -1 158 -161 249 -309 175z m160 -64 c21 -12 49 -60 49 -85 0 -13 -17 -15
-105 -15 -89 0 -105 2 -105 16 0 24 31 71 54 83 28 13 83 14 107 1z"/>
<path d="M4235 546 c-60 -28 -77 -46 -106 -111 -39 -89 -14 -230 53 -292 62
-58 184 -72 277 -33 68 30 78 43 57 75 -20 30 -31 31 -87 5 -84 -38 -166 -15
-195 55 -27 66 -30 65 134 65 102 0 152 4 160 12 27 27 2 140 -41 187 -57 62
-165 78 -252 37z m160 -72 c20 -13 45 -60 45 -85 0 -5 -49 -9 -109 -9 -108 0
-109 0 -104 23 19 74 106 111 168 71z"/>
<path d="M4814 551 c-17 -10 -40 -31 -51 -45 l-21 -26 -7 40 c-7 40 -7 40 -51
40 l-44 0 0 -235 0 -235 55 0 55 0 0 156 0 156 29 29 c25 25 37 29 85 29 l55
0 6 44 c4 25 4 49 0 55 -10 18 -77 13 -111 -8z"/>
<path d="M2705 328 l93 -233 52 0 53 0 88 224 c49 124 89 229 89 233 0 5 -24
8 -52 6 l-53 -3 -57 -150 c-31 -82 -57 -158 -58 -167 0 -30 -17 -20 -24 13 -5
25 -70 212 -101 292 -6 13 -19 17 -65 17 l-58 0 93 -232z"/>
</g>
</svg>
